<?xml version="1.0" encoding="utf-8"?>
<!-- Generator: Adobe Illustrator 15.0.0, SVG Export Plug-In . SVG Version: 6.00 Build 0)  -->
<!DOCTYPE svg PUBLIC "-//W3C//DTD SVG 1.1//EN" "http://www.w3.org/Graphics/SVG/1.1/DTD/svg11.dtd">
<svg version="1.1" id="Layer_1" xmlns="http://www.w3.org/2000/svg" xmlns:xlink="http://www.w3.org/1999/xlink" x="0px" y="0px"
	 width="150px" height="150px" viewBox="0 0 150 150" enable-background="new 0 0 150 150" xml:space="preserve">
<path fill="#1A1A1A" d="M69.772,74.329c0,11.003-8.973,19.974-19.976,19.974c-11.001,0-19.974-8.971-19.974-19.974
	c0-11.001,8.973-19.976,19.974-19.976C60.799,54.354,69.772,63.328,69.772,74.329z M129.696,114.278
	c0,5.462-4.446,9.987-9.987,9.987c-5.461,0-9.986-4.447-9.986-9.987c0-5.462,4.525-9.987,9.986-9.987
	C125.172,104.291,129.696,108.816,129.696,114.278z M129.696,34.379c0,5.461-4.446,9.987-9.987,9.987
	c-5.461,0-9.986-4.448-9.986-9.987c0-5.462,4.525-9.988,9.986-9.988C125.172,24.391,129.696,28.917,129.696,34.379z M99.733,81.663
	V67.229c0-1.093-0.779-2.106-1.872-2.341l-11.858-1.795c-0.704-2.185-1.64-4.291-2.654-6.397c2.186-3.043,4.526-5.853,6.789-8.895
	c0.311-0.469,0.546-0.938,0.546-1.483c0-2.185-9.207-10.612-11.236-12.485c-0.469-0.39-1.016-0.624-1.639-0.624
	c-0.547,0-1.093,0.156-1.56,0.546l-9.208,6.944c-1.873-0.936-3.823-1.794-5.852-2.418l-1.794-11.939
	c-0.156-1.092-1.249-1.951-2.342-1.951H42.541c-1.093,0-2.029,0.781-2.341,1.873c-1.015,3.823-1.404,8.115-1.794,12.017
	c-2.107,0.702-4.058,1.482-6.009,2.496l-8.973-7.022c-0.469-0.312-1.015-0.546-1.639-0.546c-2.262,0-11.001,9.441-12.562,11.547
	c-0.39,0.469-0.546,1.015-0.546,1.561c0,0.545,0.234,1.092,0.546,1.561c2.498,2.965,4.838,5.852,7.023,8.973
	c-1.015,1.951-1.874,3.901-2.498,5.93L1.654,64.653C0.641,64.81-0.14,65.98-0.14,66.994V81.43c0,1.093,0.781,2.105,1.872,2.263
	l11.861,1.873c0.702,2.185,1.638,4.29,2.73,6.397c-2.263,3.042-4.604,5.929-6.867,8.895c-0.312,0.468-0.546,0.938-0.546,1.483
	c0,2.263,9.207,10.61,11.235,12.483c0.469,0.39,1.015,0.625,1.639,0.625c0.547,0,1.17-0.155,1.561-0.547l9.207-6.943
	c1.873,0.935,3.824,1.794,5.853,2.418l1.794,11.938c0.156,1.093,1.248,1.95,2.341,1.95h14.512c1.093,0,2.03-0.779,2.342-1.872
	c1.014-3.824,1.405-8.115,1.794-12.095c2.106-0.623,4.058-1.405,6.008-2.418l8.972,7.021c0.469,0.312,1.015,0.547,1.64,0.547
	c2.263,0,11.001-9.52,12.562-11.625c0.391-0.391,0.546-0.938,0.546-1.483c0-0.624-0.233-1.094-0.546-1.562
	c-2.496-2.966-4.837-5.852-7.022-8.972c1.015-1.952,1.873-3.902,2.496-5.932l12.094-1.872
	C98.954,83.849,99.733,82.678,99.733,81.663z M149.671,119.74v-10.924c0-1.17-10.064-2.263-11.626-2.419
	c-0.623-1.404-1.405-2.81-2.34-4.057c0.701-1.562,3.979-9.363,3.979-10.769c0-0.156-0.078-0.389-0.312-0.546
	c-0.937-0.547-9.285-5.461-9.676-5.461l-0.467,0.155c-2.654,2.653-4.995,5.695-7.18,8.738c-0.779-0.078-1.561-0.156-2.341-0.156
	s-1.561,0.078-2.341,0.156c-0.779-1.17-6.633-8.894-7.646-8.894c-0.392,0-8.739,4.994-9.677,5.461
	c-0.234,0.157-0.312,0.39-0.312,0.546c0,1.327,3.278,9.207,3.979,10.769c-0.936,1.247-1.717,2.652-2.341,4.057
	c-1.561,0.156-11.626,1.249-11.626,2.419v10.924c0,1.17,10.065,2.263,11.626,2.418c0.624,1.483,1.405,2.809,2.341,4.059
	c-0.701,1.56-3.979,9.441-3.979,10.768c0,0.157,0.078,0.391,0.312,0.546c0.938,0.546,9.285,5.54,9.677,5.54
	c1.013,0,6.866-7.803,7.646-8.974c0.78,0.078,1.561,0.155,2.341,0.155s1.562-0.077,2.341-0.155c0.779,1.171,6.633,8.974,7.646,8.974
	c0.391,0,8.739-4.994,9.676-5.54c0.234-0.155,0.312-0.312,0.312-0.546c0-1.404-3.278-9.208-3.979-10.768
	c0.935-1.25,1.717-2.575,2.34-4.059C139.606,122.003,149.671,120.91,149.671,119.74z M149.671,39.841V28.917
	c0-1.17-10.064-2.263-11.626-2.418c-0.623-1.405-1.405-2.809-2.34-4.057c0.701-1.562,3.979-9.364,3.979-10.769
	c0-0.155-0.078-0.39-0.312-0.546c-0.937-0.546-9.285-5.462-9.676-5.462l-0.467,0.156c-2.654,2.653-4.995,5.696-7.18,8.739
	c-0.779-0.078-1.561-0.156-2.341-0.156s-1.561,0.078-2.341,0.156c-0.779-1.17-6.633-8.895-7.646-8.895
	c-0.392,0-8.739,4.994-9.677,5.462c-0.234,0.156-0.312,0.391-0.312,0.546c0,1.327,3.278,9.208,3.979,10.769
	c-0.936,1.248-1.717,2.652-2.341,4.057c-1.561,0.155-11.626,1.248-11.626,2.418v10.924c0,1.171,10.065,2.263,11.626,2.419
	c0.624,1.483,1.405,2.809,2.341,4.058c-0.701,1.561-3.979,9.441-3.979,10.768c0,0.157,0.078,0.39,0.312,0.546
	c0.938,0.546,9.285,5.54,9.677,5.54c1.013,0,6.866-7.803,7.646-8.973c0.78,0.078,1.561,0.156,2.341,0.156s1.562-0.078,2.341-0.156
	c0.779,1.17,6.633,8.973,7.646,8.973c0.391,0,8.739-4.994,9.676-5.54c0.234-0.157,0.312-0.312,0.312-0.546
	c0-1.404-3.278-9.207-3.979-10.768c0.935-1.249,1.717-2.574,2.34-4.058C139.606,42.104,149.671,41.012,149.671,39.841z"/>
</svg>
