<?xml version="1.0" encoding="utf-8"?>
<!-- Generator: Adobe Illustrator 15.0.0, SVG Export Plug-In . SVG Version: 6.00 Build 0)  -->
<!DOCTYPE svg PUBLIC "-//W3C//DTD SVG 1.1//EN" "http://www.w3.org/Graphics/SVG/1.1/DTD/svg11.dtd">
<svg version="1.1" id="Layer_1" xmlns="http://www.w3.org/2000/svg" xmlns:xlink="http://www.w3.org/1999/xlink" x="0px" y="0px"
	 width="150px" height="150px" viewBox="0 0 150 150" enable-background="new 0 0 150 150" xml:space="preserve">
<path fill="#1A1A1A" d="M96.968,52.603c0,12.177-9.933,22.11-22.109,22.11c-12.178,0-22.11-9.933-22.11-22.11
	s9.932-22.109,22.11-22.109C87.035,30.494,96.968,40.426,96.968,52.603z M119.077,52.603c0-24.441-19.778-44.219-44.219-44.219
	c-24.441,0-44.219,19.778-44.219,44.219c0,5.269,0.604,10.709,2.85,15.459l31.523,66.847c1.727,3.8,5.7,6.132,9.846,6.132
	c4.146,0,8.118-2.332,9.932-6.132l31.438-66.847C118.473,63.312,119.077,57.872,119.077,52.603z"/>
</svg>
