<?xml version="1.0" encoding="utf-8"?>
<!-- Generator: Adobe Illustrator 15.0.0, SVG Export Plug-In . SVG Version: 6.00 Build 0)  -->
<!DOCTYPE svg PUBLIC "-//W3C//DTD SVG 1.1//EN" "http://www.w3.org/Graphics/SVG/1.1/DTD/svg11.dtd">
<svg version="1.1" id="Layer_1" xmlns="http://www.w3.org/2000/svg" xmlns:xlink="http://www.w3.org/1999/xlink" x="0px" y="0px"
	 width="150px" height="150px" viewBox="0 0 150 150" enable-background="new 0 0 150 150" xml:space="preserve">
<path fill="#1A1A1A" d="M139.848,87.442c0,1.326-1.169,2.495-2.496,2.495H12.598c-1.325,0-2.496-1.169-2.496-2.495V22.57
	c0-1.325,1.17-2.496,2.496-2.496h124.754c1.327,0,2.496,1.17,2.496,2.495V87.442z M149.827,107.403V22.569
	c0-6.861-5.613-12.475-12.476-12.475H12.598c-6.862,0-12.476,5.614-12.476,12.476v84.833c0,6.862,5.614,12.475,12.476,12.475h42.416
	c0,6.785-4.99,12.087-4.99,14.973c0,2.727,2.262,4.988,4.99,4.988h39.922c2.729,0,4.99-2.262,4.99-4.988
	c0-2.73-4.99-8.344-4.99-14.973h42.416C144.214,119.878,149.827,114.266,149.827,107.403z"/>
</svg>
