<?xml version="1.0" encoding="utf-8"?>
<!-- Generator: Adobe Illustrator 15.0.0, SVG Export Plug-In . SVG Version: 6.00 Build 0)  -->
<!DOCTYPE svg PUBLIC "-//W3C//DTD SVG 1.1//EN" "http://www.w3.org/Graphics/SVG/1.1/DTD/svg11.dtd">
<svg version="1.1" id="Layer_1" xmlns="http://www.w3.org/2000/svg" xmlns:xlink="http://www.w3.org/1999/xlink" x="0px" y="0px"
	 width="40px" height="40px" viewBox="0 0 40 40" enable-background="new 0 0 40 40" xml:space="preserve">
<path fill="#333333" d="M31.426,24.763c0-0.183-0.092-0.39-0.229-0.526l-10.67-10.671c-0.138-0.137-0.344-0.229-0.527-0.229
	c-0.183,0-0.389,0.091-0.527,0.229L8.803,24.236c-0.138,0.137-0.229,0.344-0.229,0.526s0.091,0.39,0.229,0.527l1.145,1.145
	c0.138,0.138,0.344,0.229,0.527,0.229c0.184,0,0.389-0.091,0.527-0.229L20,17.436l8.999,8.999c0.138,0.138,0.343,0.229,0.526,0.229
	c0.206,0,0.39-0.091,0.526-0.229l1.146-1.145C31.334,25.152,31.426,24.945,31.426,24.763z"/>
</svg>
