<?xml version="1.0" encoding="utf-8"?>
<!-- Generator: Adobe Illustrator 15.0.0, SVG Export Plug-In . SVG Version: 6.00 Build 0)  -->
<!DOCTYPE svg PUBLIC "-//W3C//DTD SVG 1.1//EN" "http://www.w3.org/Graphics/SVG/1.1/DTD/svg11.dtd">
<svg version="1.1" id="Layer_1" xmlns="http://www.w3.org/2000/svg" xmlns:xlink="http://www.w3.org/1999/xlink" x="0px" y="0px"
	 width="40px" height="40px" viewBox="0 0 40 40" enable-background="new 0 0 40 40" xml:space="preserve">
<g>
	<path fill="#FFFFFF" d="M17.877,18.806c0,0,2.673-0.198,2.673-3.332c0-3.134-2.188-4.664-4.957-4.664h-5.099h-0.15H6.48v17.516
		h3.866h0.15h5.099c0,0,5.563,0.175,5.563-5.171C21.157,23.154,21.4,18.806,17.877,18.806z M14.938,13.923h0.656
		c0,0,1.238,0,1.238,1.822c0,1.821-0.728,2.086-1.554,2.086h-4.783v-3.908H14.938z M15.337,25.212h-4.841V20.53h5.099
		c0,0,1.847-0.023,1.847,2.405C17.441,24.984,16.061,25.195,15.337,25.212z"/>
	<path fill="#FFFFFF" d="M28.578,15.265c-6.735,0-6.729,6.729-6.729,6.729s-0.463,6.695,6.729,6.695c0,0,5.992,0.344,5.992-4.656
		h-3.082c0,0,0.103,1.883-2.809,1.883c0,0-3.082,0.207-3.082-3.049h9.075C34.674,22.867,35.666,15.265,28.578,15.265z M25.562,20.53
		c0,0,0.379-2.699,3.082-2.699c2.707,0,2.672,2.699,2.672,2.699H25.562z"/>
	<rect x="24.811" y="11.841" fill="#FFFFFF" width="7.227" height="2.158"/>
</g>
</svg>
