<?xml version="1.0" encoding="utf-8"?>
<!-- Generator: Adobe Illustrator 15.0.0, SVG Export Plug-In . SVG Version: 6.00 Build 0)  -->
<!DOCTYPE svg PUBLIC "-//W3C//DTD SVG 1.1//EN" "http://www.w3.org/Graphics/SVG/1.1/DTD/svg11.dtd">
<svg version="1.1" id="Layer_1" xmlns="http://www.w3.org/2000/svg" xmlns:xlink="http://www.w3.org/1999/xlink" x="0px" y="0px"
	 width="40px" height="40px" viewBox="0 0 40 40" enable-background="new 0 0 40 40" xml:space="preserve">
<path fill="#FFFFFF" d="M32.863,13.46c0-0.22-0.18-0.415-0.413-0.415c-0.132,0-1.025,0.376-1.259,0.441
	c0.311-0.363,1.024-1.465,1.024-1.933c0-0.22-0.183-0.415-0.416-0.415c-0.065,0-0.143,0.026-0.207,0.064
	c-0.882,0.48-1.726,0.856-2.711,1.064c-0.974-0.934-2.297-1.479-3.657-1.479c-2.881,0-5.241,2.348-5.241,5.24
	c0,0.208,0.013,0.429,0.052,0.636c-2.854-0.246-5.564-1.439-7.691-3.347c-0.52-0.467-0.961-0.973-1.428-1.491
	c-0.104-0.117-0.194-0.156-0.35-0.156c-0.143,0-0.26,0.104-0.325,0.208c-0.467,0.687-0.713,1.803-0.713,2.633
	c0,1.206,0.415,2.387,1.193,3.321c-0.246-0.078-0.622-0.325-0.843-0.325c-0.272,0-0.506,0.195-0.506,0.468
	c0,1.815,1,3.502,2.53,4.448c-0.117-0.013-0.221-0.052-0.338-0.052c-0.22,0-0.402,0.194-0.402,0.401
	c0,0.053,0.014,0.092,0.026,0.145c0.571,1.75,1.998,3.073,3.788,3.488c-1.466,0.908-3.152,1.375-4.864,1.375
	c-0.39,0-0.779-0.064-1.155-0.064c-0.233,0-0.415,0.194-0.415,0.415c0,0.144,0.078,0.261,0.195,0.351
	c0.337,0.246,0.752,0.453,1.128,0.648c1.998,1.037,4.229,1.582,6.486,1.582c5.655,0,10.494-3.035,12.828-8.197
	c0.844-1.854,1.336-3.892,1.297-5.929v-0.428c0.883-0.661,1.739-1.518,2.322-2.464C32.839,13.629,32.863,13.551,32.863,13.46z"/>
</svg>
