<?xml version="1.0" encoding="utf-8"?>
<!-- Generator: Adobe Illustrator 15.0.0, SVG Export Plug-In . SVG Version: 6.00 Build 0)  -->
<!DOCTYPE svg PUBLIC "-//W3C//DTD SVG 1.1//EN" "http://www.w3.org/Graphics/SVG/1.1/DTD/svg11.dtd">
<svg version="1.1" id="Layer_1" xmlns="http://www.w3.org/2000/svg" xmlns:xlink="http://www.w3.org/1999/xlink" x="0px" y="0px"
	 width="40px" height="40px" viewBox="0 0 40 40" enable-background="new 0 0 40 40" xml:space="preserve">
<path fill="#231F20" d="M39.883,8.979c0,0.603-0.489,1.091-1.092,1.091h-37.7C0.489,10.07,0,9.582,0,8.979V5.021
	C0,4.418,0.489,3.93,1.091,3.93h37.7c0.603,0,1.092,0.489,1.092,1.091V8.979z"/>
<path fill="#231F20" d="M39.883,21.979c0,0.604-0.489,1.092-1.092,1.092h-37.7C0.489,23.07,0,22.582,0,21.979v-3.958
	c0-0.603,0.489-1.091,1.091-1.091h37.7c0.603,0,1.092,0.489,1.092,1.091V21.979z"/>
<path fill="#231F20" d="M39.883,34.979c0,0.604-0.489,1.092-1.092,1.092h-37.7C0.489,36.07,0,35.582,0,34.979v-3.957
	c0-0.604,0.489-1.092,1.091-1.092h37.7c0.603,0,1.092,0.488,1.092,1.092V34.979z"/>
</svg>
