<?xml version="1.0" encoding="utf-8"?>
<!-- Generator: Adobe Illustrator 15.0.0, SVG Export Plug-In . SVG Version: 6.00 Build 0)  -->
<!DOCTYPE svg PUBLIC "-//W3C//DTD SVG 1.1//EN" "http://www.w3.org/Graphics/SVG/1.1/DTD/svg11.dtd">
<svg version="1.1" id="Layer_1" xmlns="http://www.w3.org/2000/svg" xmlns:xlink="http://www.w3.org/1999/xlink" x="0px" y="0px"
	 width="40px" height="40px" viewBox="0 0 40 40" enable-background="new 0 0 40 40" xml:space="preserve">
<g>
	<path fill="#FFFFFF" d="M24.584,17.509v-1.536c0-0.408-0.36-0.768-0.768-0.768h-5.38V9.827c0-0.409-0.359-0.769-0.768-0.769h-1.537
		c-0.408,0-0.768,0.36-0.768,0.769v5.378H9.986c-0.41,0-0.769,0.36-0.769,0.768v1.536c0,0.408,0.359,0.767,0.769,0.767h5.378v5.381
		c0,0.408,0.36,0.767,0.768,0.767h1.537c0.409,0,0.768-0.358,0.768-0.767v-5.381h5.38C24.224,18.276,24.584,17.917,24.584,17.509z"
		/>
	<path fill="#FFFFFF" d="M38.566,35.05l-8.647-8.646l0.333-0.48c1.865-2.695,2.852-5.87,2.852-9.182
		c0-8.934-7.269-16.203-16.203-16.204c-8.935,0-16.204,7.269-16.204,16.205c0,8.934,7.269,16.202,16.204,16.202
		c3.265,0,6.525-1.013,9.181-2.853l0.479-0.333l8.648,8.626c0.438,0.455,1.042,0.71,1.669,0.71c1.309,0,2.373-1.064,2.373-2.374
		C39.252,36.104,38.996,35.48,38.566,35.05z M16.901,28.198c-6.318,0-11.458-5.14-11.458-11.457c0-6.318,5.14-11.458,11.458-11.458
		c6.317,0,11.457,5.14,11.457,11.458C28.357,23.059,23.218,28.198,16.901,28.198z"/>
</g>
</svg>
