<?xml version="1.0" encoding="utf-8"?>
<!-- Generator: Adobe Illustrator 15.0.0, SVG Export Plug-In . SVG Version: 6.00 Build 0)  -->
<!DOCTYPE svg PUBLIC "-//W3C//DTD SVG 1.1//EN" "http://www.w3.org/Graphics/SVG/1.1/DTD/svg11.dtd">
<svg version="1.1" id="Layer_1" xmlns="http://www.w3.org/2000/svg" xmlns:xlink="http://www.w3.org/1999/xlink" x="0px" y="0px"
	 width="40px" height="40px" viewBox="0 0 40 40" enable-background="new 0 0 40 40" xml:space="preserve">
<path fill="#FFFFFF" d="M20.159,6.575c-7.415,0-13.426,6.01-13.426,13.425s6.011,13.425,13.426,13.425S33.585,27.415,33.585,20
	S27.574,6.575,20.159,6.575z M31.605,19.87c-2.998-0.578-5.629-0.596-7.922-0.244c-0.34-0.805-0.699-1.6-1.08-2.381
	c2.531-1.024,4.847-2.47,6.353-4.514v-0.058C30.586,14.627,31.576,17.133,31.605,19.87z M27.741,11.423
	c-1.048,1.495-2.959,2.983-6.005,4.127c-1.274-2.377-2.728-4.621-4.297-6.673c0.872-0.212,1.783-0.328,2.72-0.328
	C23.068,8.55,25.723,9.637,27.741,11.423z M15.175,9.689l0.099-0.026c1.179,1.646,2.729,3.853,4.253,6.597
	c-2.765,0.757-6.245,1.263-10.569,1.359C9.699,14.119,12.038,11.208,15.175,9.689z M8.709,20c0-0.091,0.004-0.181,0.007-0.271
	c0.097,0,6.046,0.029,11.739-1.724c0.339,0.674,0.674,1.376,1,2.104c-5.458,1.543-8.575,5.235-9.786,7.575
	C9.83,25.65,8.709,22.956,8.709,20z M13.132,29.038c2.9-4.245,6.07-6.293,9.056-7.188c1.03,2.594,1.906,5.491,2.451,8.691
	c-1.375,0.585-2.891,0.909-4.479,0.909C17.51,31.45,15.073,30.549,13.132,29.038z M26.546,29.506
	c-0.435-2.766-1.179-5.494-2.165-8.127c2.764-0.369,5.249,0.089,7.055,0.445c0.01,0.002,0.019,0.003,0.027,0.005
	C30.951,25.021,29.119,27.771,26.546,29.506z"/>
</svg>
