<?xml version="1.0" encoding="utf-8"?>
<!-- Generator: Adobe Illustrator 15.0.0, SVG Export Plug-In . SVG Version: 6.00 Build 0)  -->
<!DOCTYPE svg PUBLIC "-//W3C//DTD SVG 1.1//EN" "http://www.w3.org/Graphics/SVG/1.1/DTD/svg11.dtd">
<svg version="1.1" id="Layer_1" xmlns="http://www.w3.org/2000/svg" xmlns:xlink="http://www.w3.org/1999/xlink" x="0px" y="0px"
	 width="40px" height="40px" viewBox="0 0 40 40" enable-background="new 0 0 40 40" xml:space="preserve">
<path d="M20.42,13.157v5.325c0.271-0.254,0.506-0.372,0.777-0.49l6.087-2.181c0.761-0.355,1.386-1.133,1.386-2.147V1.238
	c0-0.119-0.085-0.288-0.321-0.288s-0.304,0.169-0.304,0.288v7.101c0,0.507-0.254,0.879-0.761,1.132l-5.715,2.164
	C20.926,11.889,20.42,12.396,20.42,13.157z M15.923,9.64c0.271,0,0.321-0.169,0.321-0.287V2.878c0-0.135-0.084-0.288-0.321-0.288
	c-0.203,0-0.321,0.152-0.321,0.288v6.475C15.602,9.471,15.686,9.64,15.923,9.64z M23.937,9.64c0.236,0,0.321-0.169,0.321-0.287
	V2.878c0-0.135-0.135-0.288-0.321-0.288c-0.237,0-0.321,0.152-0.321,0.288v6.475C23.615,9.471,23.666,9.64,23.937,9.64z
	 M26.168,8.812c0.237,0,0.321-0.152,0.321-0.27V2.066c0-0.135-0.135-0.287-0.321-0.287c-0.236,0-0.321,0.152-0.321,0.287v6.475
	C25.847,8.66,25.897,8.812,26.168,8.812z M21.569,19.108c-0.643,0.27-1.149,0.913-1.149,1.538v5.325
	c0.271-0.118,0.506-0.254,0.761-0.389l6.104-2.266c0.761-0.271,1.386-1.149,1.386-2.029V16.2c-0.389,0.253-0.744,0.523-1.133,0.643
	L21.569,19.108z M19.946,11.365c0.271-0.237,0.592-0.49,0.98-0.744l0.898-0.253c-0.137-1.015-0.898-1.657-1.912-1.657
	c-0.878,0-1.758,0.643-1.758,1.657l0.76,0.253C19.271,10.875,19.693,11.128,19.946,11.365z M13.691,8.812
	c0.27,0,0.321-0.152,0.321-0.27V2.066c0-0.135-0.084-0.287-0.321-0.287c-0.203,0-0.322,0.152-0.322,0.287v6.475
	C13.37,8.66,13.455,8.812,13.691,8.812z M12.559,23.317l6.086,2.266c0.27,0.135,0.507,0.271,0.778,0.389v-5.325
	c0-0.625-0.508-1.269-1.149-1.538l-5.968-2.266c-0.389-0.119-0.778-0.39-1.133-0.643v5.088
	C11.172,22.168,11.798,23.047,12.559,23.317z M34.013,16.825c-0.812-1.876-1.793-3.398-3.179-4.818
	c-0.372-0.372-0.761-0.761-1.149-0.998v2.265c2.417,2.537,3.804,5.833,3.804,9.518c0,2.028-0.49,4.312-1.387,5.969
	c-0.134,0.271-0.253,0.507-0.371,0.761H20.42v-2.672c0,0-0.439,0.271-0.439,0.524c0-0.253-0.439-0.524-0.439-0.524v2.672H8.113
	c-1.15-2.029-1.775-4.312-1.775-6.729c0-1.774,0.389-3.532,1.014-5.071l0.119-0.253c0.271-0.745,0.643-1.387,1.149-2.164
	c0.457-0.677,1.032-1.387,1.522-1.877V11.01c-0.321,0.304-0.643,0.625-0.998,0.998c-1.403,1.42-2.553,2.925-3.296,4.835
	c-0.761,1.91-1.15,3.804-1.15,5.95c0,2.028,0.389,4.058,1.15,5.969c0.744,1.775,1.894,3.414,3.296,4.834
	c0.237,0.237,0.862,0.744,0.879,0.762c1.149,0.996,2.536,1.894,3.922,2.535c1.911,0.762,3.939,1.133,5.968,1.133
	c2.165,0,4.075-0.371,5.985-1.133c1.877-0.776,3.415-1.91,4.937-3.297c1.386-1.42,2.417-3.059,3.161-4.834
	c0.88-1.911,1.269-3.94,1.269-5.969C35.264,20.646,34.942,18.888,34.013,16.825z M19.913,36.386c-3.296,0-6.323-1.268-8.74-3.297
	H28.67C26.388,35.118,23.345,36.386,19.913,36.386z M12.559,15.812l6.086,2.181c0.27,0.118,0.507,0.236,0.778,0.49v-5.325
	c0-0.761-0.508-1.269-1.149-1.522l-5.715-2.164c-0.507-0.253-0.761-0.625-0.761-1.132V1.238c0-0.119-0.067-0.288-0.304-0.288
	s-0.321,0.169-0.321,0.288v12.426C11.172,14.678,11.798,15.457,12.559,15.812z"/>
</svg>
