<?xml version="1.0" encoding="utf-8"?>
<!-- Generator: Adobe Illustrator 15.0.0, SVG Export Plug-In . SVG Version: 6.00 Build 0)  -->
<!DOCTYPE svg PUBLIC "-//W3C//DTD SVG 1.1//EN" "http://www.w3.org/Graphics/SVG/1.1/DTD/svg11.dtd">
<svg version="1.1" id="Layer_1" xmlns="http://www.w3.org/2000/svg" xmlns:xlink="http://www.w3.org/1999/xlink" x="0px" y="0px"
	 width="25.115px" height="32.964px" viewBox="7.327 4.129 25.115 32.964" enable-background="new 7.327 4.129 25.115 32.964"
	 xml:space="preserve">
<g>
	<path fill="#333333" d="M28.104,9.32c0-0.009,0-0.019,0-0.028c0-0.157-0.127-0.285-0.284-0.285c-0.082,0-0.155,0.036-0.208,0.091
		l-6.55,6.548c-0.404,0.403-0.643,0.833-0.643,1.39l0,0l0,0v7.047l0,0c0.004,0.151,0.13,0.275,0.284,0.275
		c0.081,0,0.153-0.031,0.205-0.085l6.644-6.642c0.339-0.331,0.552-0.795,0.552-1.307C28.104,16.302,28.104,9.32,28.104,9.32z"/>
	<path fill="#333333" d="M11.767,9.32c0-0.009,0-0.019,0-0.028c0-0.157,0.126-0.285,0.284-0.285c0.082,0,0.156,0.036,0.207,0.091
		l6.551,6.548c0.388,0.389,0.642,0.833,0.642,1.39l0,0l0,0v7.047l0,0c-0.003,0.151-0.128,0.275-0.285,0.275
		c-0.08,0-0.151-0.031-0.205-0.085l-6.642-6.642c-0.339-0.331-0.552-0.795-0.552-1.307C11.767,16.303,11.767,9.32,11.767,9.32z"/>
	<path fill="#333333" d="M28.103,19.147c0-0.157-0.126-0.285-0.283-0.285c-0.082,0-0.155,0.036-0.208,0.091l-6.55,6.549
		c-0.37,0.37-0.643,0.834-0.643,1.389l0,0l0,0v7.047l0,0c0.004,0.155,0.13,0.279,0.284,0.279c0.081,0,0.153-0.033,0.205-0.086
		l6.644-6.643c0.339-0.333,0.552-0.797,0.552-1.307C28.104,26.158,28.103,19.158,28.103,19.147z"/>
	<path fill="#333333" d="M11.767,19.177c0-0.01,0-0.019,0-0.03c0-0.157,0.126-0.285,0.284-0.285c0.082,0,0.156,0.036,0.207,0.091
		l6.551,6.549c0.379,0.38,0.642,0.834,0.642,1.389l0,0l0,0v7.047l0,0c-0.003,0.155-0.128,0.279-0.285,0.279
		c-0.08,0-0.151-0.033-0.205-0.086l-6.642-6.643c-0.339-0.333-0.552-0.797-0.552-1.307C11.767,26.158,11.767,19.177,11.767,19.177z"
		/>
	<g>
		<path fill="#333333" d="M19.466,14.845c0.178,0.176,0.338,0.336,0.47,0.53c0.13-0.194,0.29-0.352,0.466-0.53l2.039-2.039
			c-0.585-0.737-1.491-1.211-2.507-1.211c-1.015,0-1.921,0.474-2.507,1.211L19.466,14.845z"/>
	</g>
</g>
</svg>
