<?xml version="1.0" encoding="utf-8"?>
<!-- Generator: Adobe Illustrator 15.0.0, SVG Export Plug-In . SVG Version: 6.00 Build 0)  -->
<!DOCTYPE svg PUBLIC "-//W3C//DTD SVG 1.1//EN" "http://www.w3.org/Graphics/SVG/1.1/DTD/svg11.dtd">
<svg version="1.1" id="Layer_1" xmlns="http://www.w3.org/2000/svg" xmlns:xlink="http://www.w3.org/1999/xlink" x="0px" y="0px"
	 width="40px" height="40px" viewBox="0 0 40 40" enable-background="new 0 0 40 40" xml:space="preserve">
<path fill="#FFFFFF" d="M25.124,14.978c-1.391,0-2.764,0.37-3.798,1.343c0-0.401,0.047-0.988-0.541-0.988h-3.688
	c-0.293,0-0.541,0.247-0.541,0.54v13.399c0,0.292,0.247,0.54,0.541,0.54h3.797c0.309,0,0.557-0.248,0.557-0.54v-7.271
	c0-1.713,0.523-3.01,2.454-3.01c1.497,0,1.882,0.741,1.882,2.115v8.166c0,0.292,0.248,0.54,0.541,0.54h3.89
	c0.294,0,0.54-0.248,0.54-0.54v-9.046C30.757,16.66,28.55,14.978,25.124,14.978z M13.948,15.333H10.15
	c-0.293,0-0.541,0.247-0.541,0.54v13.399c0,0.292,0.248,0.54,0.541,0.54h3.798c0.292,0,0.54-0.248,0.54-0.54V15.873
	C14.488,15.58,14.241,15.333,13.948,15.333z M12.049,8.649c-1.42,0-2.578,1.158-2.578,2.578c0,1.42,1.158,2.578,2.578,2.578
	c1.42,0,2.578-1.158,2.578-2.578C14.627,9.807,13.469,8.649,12.049,8.649z"/>
</svg>
